<?xml version="1.0" encoding="utf-8"?>
<!-- Generator: Adobe Illustrator 16.0.0, SVG Export Plug-In . SVG Version: 6.00 Build 0)  -->
<!DOCTYPE svg PUBLIC "-//W3C//DTD SVG 1.1//EN" "http://www.w3.org/Graphics/SVG/1.1/DTD/svg11.dtd">
<svg version="1.1" id="Layer_1" xmlns="http://www.w3.org/2000/svg" xmlns:xlink="http://www.w3.org/1999/xlink" x="0px" y="0px"
	 width="72px" height="72px" viewBox="0 0 72 72" enable-background="new 0 0 72 72" xml:space="preserve">
<path fill="#e0dfd5" d="M54.06,24.33H42.046v-2.628H54.06V24.33z M56.582,42.727c-2.312,6.781-17.867,8.904-17.867-4.687
	c0-13.764,16.541-13.146,18.178-2.619c0.135,0.886,0.188,2.079,0.167,3.751H43.814c-0.313,5.15,5.288,5.802,7.221,3.555H56.582
	L56.582,42.727z M43.935,35.718h7.881C51.473,30.652,44.727,30.282,43.935,35.718z M26.342,47.959H15.017V21.742h12.182
	c9.592,0.141,9.774,9.538,4.766,12.097C38.028,36.045,38.228,47.959,26.342,47.959z M20.647,32.541h5.901
	c4.398,0,5.094-5.583-0.546-5.583h-5.355V32.541z M26.216,36.908h-5.568v5.848h5.479C31.478,42.75,31.15,36.908,26.216,36.908z
	 M36.04,6.007c16.559,0,30.033,13.472,30.033,30.033c0,16.559-13.474,30.033-30.033,30.033c-16.561,0-30.033-13.474-30.033-30.033
	C6.007,19.479,19.479,6.007,36.04,6.007z M36.04,0C16.137,0,0,16.137,0,36.04s16.137,36.04,36.04,36.04s36.04-16.137,36.04-36.04
	S55.942,0,36.04,0z"/>
</svg>
