<?xml version="1.0" encoding="utf-8"?>
<!-- Generator: Adobe Illustrator 16.0.0, SVG Export Plug-In . SVG Version: 6.00 Build 0)  -->
<!DOCTYPE svg PUBLIC "-//W3C//DTD SVG 1.1//EN" "http://www.w3.org/Graphics/SVG/1.1/DTD/svg11.dtd">
<svg version="1.1" id="Layer_1" xmlns="http://www.w3.org/2000/svg" xmlns:xlink="http://www.w3.org/1999/xlink" x="0px" y="0px"
	 width="72px" height="72px" viewBox="0 0 72 72" enable-background="new 0 0 72 72" xml:space="preserve">
<path fill="#e0dfd5" d="M36,1.352c-19.615,0-35.524,15.906-35.524,35.524c0,15.695,10.178,29.011,24.296,33.709
	c1.773,0.329,2.348-0.772,2.348-1.706v-6.614c-9.882,2.148-11.94-4.192-11.94-4.192c-1.616-4.104-3.946-5.197-3.946-5.197
	c-3.224-2.206,0.246-2.16,0.246-2.16c3.568,0.249,5.445,3.663,5.445,3.663c3.167,5.43,8.309,3.859,10.337,2.952
	c0.316-2.296,1.237-3.865,2.256-4.75c-7.89-0.902-16.185-3.949-16.185-17.557c0-3.881,1.389-7.048,3.66-9.536
	c-0.367-0.896-1.584-4.511,0.346-9.401c0,0,2.985-0.954,9.773,3.641c2.833-0.788,5.87-1.181,8.89-1.195
	c3.019,0.015,6.06,0.408,8.898,1.195c6.782-4.595,9.76-3.641,9.76-3.641c1.935,4.893,0.717,8.508,0.35,9.401
	c2.281,2.488,3.657,5.658,3.657,9.536c0,13.642-8.309,16.649-16.221,17.528c1.274,1.102,2.437,3.261,2.437,6.58v9.748
	c0,0.942,0.566,2.053,2.371,1.703c14.107-4.704,24.272-18.017,24.272-33.706C71.524,17.258,55.618,1.352,36,1.352z"/>
</svg>
