<?xml version="1.0" encoding="utf-8"?>
<!-- Generator: Adobe Illustrator 16.0.0, SVG Export Plug-In . SVG Version: 6.00 Build 0)  -->
<!DOCTYPE svg PUBLIC "-//W3C//DTD SVG 1.1//EN" "http://www.w3.org/Graphics/SVG/1.1/DTD/svg11.dtd">
<svg version="1.1" id="Layer_1" xmlns="http://www.w3.org/2000/svg" xmlns:xlink="http://www.w3.org/1999/xlink" x="0px" y="0px"
	 width="72px" height="72px" viewBox="0 0 72 72" enable-background="new 0 0 72 72" xml:space="preserve">
<g transform="translate(0,-952.36218)">
	<g transform="translate(7.994095,960.35628)">
		<path fill="#e0dfd5" d="M28.005-7.893C8.197-7.893-7.893,8.229-7.893,28.032s16.09,35.874,35.898,35.874
			c19.809,0,35.899-16.07,35.899-35.874S47.814-7.893,28.005-7.893z M28.005-4.604c18.043,0,32.635,14.596,32.635,32.636
			S46.049,60.641,28.005,60.641C9.961,60.641-4.63,46.071-4.63,28.032S9.961-4.604,28.005-4.604z M28.286,4.371
			c-0.348,0.031-0.684,0.177-0.943,0.408l-8.287,7.038c0-1.658,0-3.315,0-4.973c-2.776,0-5.743,0-8.159,0c0,3.97,0,7.938,0,11.907
			l-8.439,7.164c-0.679,0.55-0.778,1.676-0.207,2.336c0.571,0.66,1.704,0.727,2.348,0.138l1.402-1.174c0,7.064,0,14.125,0,21.188
			c6.236,0,11.54,0,17.134,0c0-3.791,0-7.581,0-11.372h9.815c0,3.791,0,7.581,0,11.372c6.25,0,11.551,0,17.158,0
			c0-7.055,0-14.107,0-21.163l1.275,1.122c0.637,0.602,1.777,0.549,2.352-0.109c0.578-0.659,0.477-1.792-0.209-2.338L29.484,4.779
			C29.16,4.491,28.719,4.341,28.286,4.371z"/>
	</g>
</g>
</svg>
