<?xml version="1.0" encoding="utf-8"?>
<!-- Generator: Adobe Illustrator 16.0.0, SVG Export Plug-In . SVG Version: 6.00 Build 0)  -->
<!DOCTYPE svg PUBLIC "-//W3C//DTD SVG 1.1//EN" "http://www.w3.org/Graphics/SVG/1.1/DTD/svg11.dtd">
<svg version="1.1" id="Layer_1" xmlns="http://www.w3.org/2000/svg" xmlns:xlink="http://www.w3.org/1999/xlink" x="0px" y="0px"
	 width="72px" height="72px" viewBox="0 0 72 72" enable-background="new 0 0 72 72" xml:space="preserve">
<path fill="#e0dfd5" d="M36,6.153c16.502,0,29.93,13.426,29.93,29.93c0,16.502-13.428,29.93-29.93,29.93
	c-16.504,0-29.93-13.428-29.93-29.93C6.069,19.58,19.496,6.153,36,6.153z M36,0.167c-19.835,0-35.917,16.082-35.917,35.917
	C0.083,55.918,16.165,72,36,72c19.834,0,35.917-16.082,35.917-35.917C71.916,16.249,55.834,0.167,36,0.167z M30.014,24.111
	c0,1.667-1.337,3.017-2.993,3.017s-2.993-1.346-2.993-3.017c0-1.667,1.337-3.017,2.993-3.017S30.014,22.447,30.014,24.111z
	 M30.014,30.098h-5.986v17.958h5.986V30.098z M38.992,30.098h-5.986v17.958h5.986v-8.564c0-5.153,5.992-5.629,5.992,0v8.564h5.98
	V38.001c0-9.828-9.362-9.469-11.973-4.633V30.098z"/>
</svg>
